:SAMPLES-PER-SECOND 30
:FULLY-SPECIFIED
:DEGREES
298
root  -10.2217 34.5493 -11.3872 -172.949 4.49428 179.555
RightUpLeg  -9.59237 -13.3932 -2.56969
RightLeg  12.7779 -5.92758 -0.945582
RightFoot  1.60454 0.00474907 0.0104566
RightToes  -25.3203 -0.113059 -0.218162
Spine  -1.59159 0.210788 -0.318265
Spine1  -3.28612 0.549327 -0.144574
HEad  -57.5655 -0.947979 5.09458
LeftShoulder1  -1.94126e-019 -3.10601e-018 -2.51263e-017
LeftArm  -12.7009 23.9756 -77.1081
LeftForeArm  30.9142 -18.5757 -3.216
LeftHand  -0.280315 0.327932 6.45065
RightShoulder  -4.96962e-017 0 -2.36833e-017
RightArm  -32.6493 -21.3458 75.9169
RightForeArm  55.0084 13.1935 1.37164
RightHand  -0.429923 -1.90653 -14.1553
LeftUpLeg  -8.83724 0.499195 3.7907
LeftLeg  8.60459 14.6083 1.24326
LeftFoot  6.93112 -0.0959833 1.917
LeftToes  -25.7566 2.14545e-006 -7.7278e-009
299
root  -10.1189 34.5483 -11.1832 -172.492 4.02513 179.74
RightUpLeg  -10.2931 -13.6428 -1.99877
RightLeg  12.7722 -6.12566 -0.976433
RightFoot  1.6839 0.00654278 -0.00372491
RightToes  -24.9751 -0.110894 -0.215571
Spine  -1.56804 0.139766 -0.222961
Spine1  -3.23438 0.416992 0.0413146
HEad  -58.0911 -0.916394 5.03743
LeftShoulder1  -1.94126e-019 -3.10601e-018 -2.51263e-017
LeftArm  -12.3585 23.4925 -77.0496
LeftForeArm  30.3322 -19.8774 -3.42887
LeftHand  -0.289382 0.40485 6.75528
RightShoulder  -4.96962e-017 0 -2.36833e-017
RightArm  -32.5463 -21.0864 75.9244
RightForeArm  55.3963 12.9997 1.39041
RightHand  -0.435163 -1.86065 -14.1487
LeftUpLeg  -10.4186 0.27078 4.19927
LeftLeg  10.0835 14.3511 1.59159
LeftFoot  6.80974 -0.0940598 1.8576
LeftToes  -26.0495 2.14545e-006 -7.7278e-009
300
root  -9.99399 34.5425 -10.9579 -172.17 3.52097 179.997
RightUpLeg  -10.7979 -13.9562 -1.33461
RightLeg  12.5784 -6.31233 -0.984175
RightFoot  1.79874 0.0087771 -0.0225401
RightToes  -24.3728 -0.107617 -0.211628
Spine  -1.42293 0.164443 -0.0874738
Spine1  -2.93871 0.477316 0.300833
HEad  -58.9185 -0.918546 4.83753
LeftShoulder1  -1.94126e-019 -3.10601e-018 -2.51263e-017
LeftArm  -12.2531 22.7229 -77.07
LeftForeArm  30.2536 -21.6039 -3.70107
LeftHand  -0.277134 0.341981 6.39346
RightShoulder  -4.96962e-017 0 -2.36833e-017
RightArm  -32.3001 -20.7224 75.8816
RightForeArm  55.6671 12.9311 1.39587
RightHand  -0.431767 -1.88261 -14.2263
LeftUpLeg  -12.0004 0.198098 4.71476
LeftLeg  11.7353 13.906 1.94597
LeftFoot  6.67159 -0.0908998 1.77305
LeftToes  -26.2696 2.14545e-006 -7.7278e-009
301
root  -9.85349 34.5336 -10.7036 -171.895 2.97333 -179.758
RightUpLeg  -11.3312 -14.279 -0.647004
RightLeg  12.4265 -6.5488 -1.00311
RightFoot  1.94974 0.011567 -0.0475781
RightToes  -23.8996 -0.103999 -0.207413
Spine  -1.23035 0.260572 0.0543679
Spine1  -2.54694 0.680973 0.570826
HEad  -59.8144 -0.947433 4.57494
LeftShoulder1  -1.94126e-019 -3.10601e-018 -2.51263e-017
LeftArm  -11.8168 21.9299 -77.1673
LeftForeArm  29.6243 -23.6656 -4.00658
LeftHand  -0.276315 0.348015 6.3815
RightShoulder  -4.96962e-017 0 -2.36833e-017
RightArm  -31.6154 -20.3473 75.7898
RightForeArm  55.7355 12.9867 1.37769
RightHand  -0.42947 -1.93034 -14.2289
LeftUpLeg  -13.5911 -0.168568 5.25965
LeftLeg  13.3687 13.689 2.3114
LeftFoot  6.69396 -0.0927186 1.75961
LeftToes  -26.5035 2.14545e-006 -7.7278e-009
302
root  -9.6808 34.5238 -10.4094 -171.542 2.33606 -179.365
RightUpLeg  -11.9594 -14.5143 0.273614
RightLeg  12.1964 -6.91187 -1.03006
RightFoot  2.20467 0.0157302 -0.0904725
RightToes  -23.4188 -0.101326 -0.203726
Spine  -1.02633 0.350527 0.270699
Spine1  -2.1296 0.880514 0.983482
HEad  -60.7147 -0.846368 4.18996
LeftShoulder1  -1.94126e-019 -3.10601e-018 -2.51263e-017
LeftArm  -11.459 21.1762 -77.3741
LeftForeArm  28.8992 -25.946 -4.34693
LeftHand  -0.281698 0.221465 6.35956
RightShoulder  -4.96962e-017 0 -2.36833e-017
RightArm  -30.7781 -19.6687 75.6261
RightForeArm  55.9566 12.9345 1.39321
RightHand  -0.42607 -1.96735 -14.2696
LeftUpLeg  -15.2698 -0.568989 6.02876
LeftLeg  14.8453 13.4286 2.62195
LeftFoot  6.86895 -0.0970438 1.77845
LeftToes  -26.8416 2.14545e-006 -7.7278e-009
303
root  -9.5068 34.5155 -10.0919 -171.253 1.65288 -179.08
RightUpLeg  -12.5037 -15.3419 1.12283
RightLeg  11.7595 -6.79752 -0.960246
RightFoot  2.56244 0.0197531 -0.129539
RightToes  -22.9263 -0.0996444 -0.200318
Spine  -0.796774 0.463032 0.495868
Spine1  -1.6605 1.12796 1.40986
HEad  -61.6273 -0.887027 3.62588
LeftShoulder1  -1.94126e-019 -3.10601e-018 -2.51263e-017
LeftArm  -11.0607 20.4192 -77.7239
LeftForeArm  28.1068 -28.1065 -4.67528
LeftHand  -0.261972 0.459729 6.17398
RightShoulder  -4.96962e-017 0 -2.36833e-017
RightArm  -29.6546 -18.9609 75.3972
RightForeArm  55.8873 13.0596 1.37926
RightHand  -0.424637 -1.98871 -14.308
LeftUpLeg  -16.7347 -0.5504 6.64893
LeftLeg  15.8247 12.7634 2.71931
LeftFoot  7.32786 -0.105343 1.80652
LeftToes  -27.3305 2.14545e-006 -7.7278e-009
304
root  -9.35196 34.5162 -9.74511 -170.967 0.771957 -178.964
RightUpLeg  -12.9523 -16.5415 1.83277
RightLeg  10.9967 -6.54587 -0.836234
RightFoot  3.10945 0.0248271 -0.181751
RightToes  -22.651 -0.0981487 -0.197788
Spine  -0.572576 0.589807 0.687524
Spine1  -1.20117 1.40331 1.76901
HEad  -62.372 -1.28374 2.95751
LeftShoulder1  -1.94126e-019 -3.10601e-018 -2.51263e-017
LeftArm  -10.6832 19.5056 -78.2216
LeftForeArm  27.78 -29.7344 -4.95824
LeftHand  -0.261882 0.422558 6.12946
RightShoulder  -4.96962e-017 0 -2.36833e-017
RightArm  -28.5041 -18.3806 75.1928
RightForeArm  55.4968 13.4235 1.33891
RightHand  -0.408994 -2.12986 -14.3541
LeftUpLeg  -18.1366 -0.437657 7.05516
LeftLeg  16.4337 11.7907 2.64538
LeftFoot  8.02485 -0.116941 1.82858
LeftToes  -27.4848 2.14545e-006 -7.7278e-009
305
root  -9.20973 34.5294 -9.35086 -170.34 -0.488602 -178.986
RightUpLeg  -13.7084 -18.0913 2.56329
RightLeg  9.98647 -6.28748 -0.69105
RightFoot  3.81375 0.0308211 -0.245183
RightToes  -22.3334 -0.0968483 -0.19647
Spine  -0.488027 0.670369 0.854746
Spine1  -1.01731 1.58682 2.08506
HEad  -63.2076 -1.92754 2.24069
LeftShoulder1  -1.94126e-019 -3.10601e-018 -2.51263e-017
LeftArm  -10.2128 18.5726 -78.8378
LeftForeArm  27.8162 -30.9452 -5.20472
LeftHand  -0.259396 0.401793 6.04771
RightShoulder  -4.96962e-017 0 -2.36833e-017
RightArm  -27.1134 -17.975 74.9388
RightForeArm  54.6083 13.8863 1.29121
RightHand  -0.391849 -2.26951 -14.3416
LeftUpLeg  -20.0052 -0.132608 7.29795
LeftLeg  16.8779 10.1311 2.35941
LeftFoot  9.19132 -0.131887 1.80218
LeftToes  -28.3825 2.14545e-006 -7.7278e-009
306
root  -9.10659 34.5523 -8.94564 -169.646 -2.01093 -179.239
RightUpLeg  -14.6031 -20.1951 3.12248
RightLeg  9.03055 -5.70138 -0.530821
RightFoot  4.53754 0.0348511 -0.278561
RightToes  -22.3397 -0.0957531 -0.195612
Spine  -0.441804 0.709068 0.970477
Spine1  -0.911244 1.68285 2.3041
HEad  -64.1805 -2.77484 1.50147
LeftShoulder1  -1.94126e-019 -3.10601e-018 -2.51263e-017
LeftArm  -9.72548 17.6676 -79.6316
LeftForeArm  28.0739 -31.7341 -5.37599
LeftHand  -0.254509 0.38482 5.91459
RightShoulder  -4.96962e-017 0 -2.36833e-017
RightArm  -25.3032 -17.7308 74.5813
RightForeArm  53.3655 14.5561 1.22888
RightHand  -0.370863 -2.41897 -14.2232
LeftUpLeg  -22.0006 0.265244 7.21357
LeftLeg  17.2819 7.92167 1.90719
LeftFoot  10.5342 -0.135296 1.62907
LeftToes  -29.783 2.14545e-006 -7.7278e-009
307
root  -9.04282 34.566 -8.55063 -169.036 -3.52994 -179.534
RightUpLeg  -15.4605 -22.0573 3.577
RightLeg  8.19303 -5.37537 -0.421463
RightFoot  5.1216 0.0386576 -0.306706
RightToes  -22.0528 -0.0948728 -0.19514
Spine  -0.408754 0.768004 1.06161
Spine1  -0.832494 1.81723 2.47294
HEad  -65.0429 -3.69367 0.787425
LeftShoulder1  -1.94126e-019 -3.10601e-018 -2.51263e-017
LeftArm  -8.79337 16.9321 -80.4323
LeftForeArm  28.4469 -32.3642 -5.50997
LeftHand  -0.29705 -0.0389274 6.40982
RightShoulder  -4.96962e-017 0 -2.36833e-017
RightArm  -23.6123 -17.6059 74.1384
RightForeArm  52.4834 15.3244 1.17009
RightHand  -0.360106 -2.54021 -14.3754
LeftUpLeg  -23.813 0.533718 7.08936
LeftLeg  17.8012 5.06623 1.26995
LeftFoot  10.7364 -0.0890295 1.10895
LeftToes  -32.2486 2.14545e-006 -7.7278e-009
308
root  -9.02341 34.5698 -8.21983 -168.979 -4.70927 -179.744
RightUpLeg  -15.5809 -23.1758 3.72205
RightLeg  7.28563 -5.4395 -0.34003
RightFoot  5.80158 0.0473369 -0.375002
RightToes  -22.0457 -0.0942172 -0.194978
Spine  -0.290657 0.845855 1.1476
Spine1  -0.588838 1.98191 2.63055
HEad  -65.5537 -4.41593 0.577056
LeftShoulder1  -1.94126e-019 -3.10601e-018 -2.51263e-017
LeftArm  -7.70749 16.3876 -81.2609
LeftForeArm  28.8727 -32.5271 -5.52665
LeftHand  -0.258129 0.0610742 5.66639
RightShoulder  -4.96962e-017 0 -2.36833e-017
RightArm  -21.9589 -17.3172 73.6231
RightForeArm  51.8558 15.867 1.15361
RightHand  -0.373381 -2.38348 -14.1565
LeftUpLeg  -24.6389 0.728557 7.00188
LeftLeg  19.0374 2.41823 0.661094
LeftFoot  9.01585 -0.0286667 0.525118
LeftToes  -37.7833 2.14545e-006 -7.7278e-009
309
root  -9.04418 34.5635 -7.93705 -169.125 -5.19589 -179.787
RightUpLeg  -15.4792 -23.4803 3.76506
RightLeg  6.45341 -5.65211 -0.271106
RightFoot  6.57621 0.059349 -0.471555
RightToes  -22.3866 -0.0937962 -0.19505
Spine  -0.219289 0.986731 1.23722
Spine1  -0.440779 2.26604 2.80109
HEad  -65.3789 -4.74796 0.688718
LeftShoulder1  -1.94126e-019 -3.10601e-018 -2.51263e-017
LeftArm  -6.60854 16.2416 -82.0082
LeftForeArm  29.6646 -32.4213 -5.45649
LeftHand  -0.252497 -0.0973338 5.39812
RightShoulder  -4.96962e-017 0 -2.36833e-017
RightArm  -20.6004 -16.8194 73.1346
RightForeArm  51.8352 16.084 1.14832
RightHand  -0.401163 -2.13834 -14.1098
LeftUpLeg  -24.7286 1.65685 6.70591
LeftLeg  21.7707 2.99362 0.974107
LeftFoot  6.27884 -0.017194 0.475004
LeftToes  -37.7962 2.14545e-006 -7.7278e-009
